<?xml version="1.0" encoding="utf-8"?>
<!-- Generator: Adobe Illustrator 25.2.0, SVG Export Plug-In . SVG Version: 6.00 Build 0)  -->
<svg version="1.1" id="Layer_1" xmlns="http://www.w3.org/2000/svg" xmlns:xlink="http://www.w3.org/1999/xlink" x="0px" y="0px"
	 viewBox="0 0 48 48" style="enable-background:new 0 0 48 48;" xml:space="preserve">
<style type="text/css">
	.st0{fill:#2DCCA6;}
</style>
<g>
	<path d="M11.3,11.5h6v16.8c0,1.6-0.4,3-1.1,4.3c-0.7,1.3-1.8,2.2-3.1,2.9c-1.3,0.7-2.8,1-4.4,1c-2.7,0-4.9-0.7-6.4-2.1
		C0.8,33.1,0,31.1,0,28.6h6.1c0,1.1,0.2,2,0.6,2.5c0.4,0.5,1.1,0.8,2,0.8c0.8,0,1.5-0.3,1.9-0.9c0.5-0.6,0.7-1.5,0.7-2.6V11.5z"/>
	<path d="M19.7,36.5V11.5h9c3.2,0,5.7,0.6,7.4,1.8c1.7,1.2,2.5,2.9,2.5,5.2c0,1.3-0.3,2.4-0.9,3.3c-0.6,0.9-1.5,1.6-2.6,2
		c1.3,0.3,2.3,1,3,1.9c0.7,0.9,1.1,2.1,1.1,3.4c0,2.5-0.8,4.3-2.3,5.5c-1.6,1.2-3.9,1.9-6.9,1.9H19.7z M25.8,21.9h3.2
		c1.3,0,2.3-0.3,2.8-0.7c0.6-0.5,0.8-1.2,0.8-2.1c0-1.1-0.3-1.8-0.9-2.3c-0.6-0.5-1.6-0.7-2.9-0.7h-3V21.9z M25.8,25.9v6h4
		c1.1,0,1.9-0.2,2.5-0.7s0.9-1.2,0.9-2.1c0-2.1-1-3.1-3.1-3.2H25.8z"/>
	<path class="st0" d="M44.8,30.7c0.9,0,1.7,0.3,2.3,0.8c0.6,0.5,0.9,1.2,0.9,2.1c0,0.8-0.3,1.5-0.9,2.1c-0.6,0.5-1.4,0.8-2.3,0.8
		c-0.9,0-1.7-0.3-2.3-0.8c-0.6-0.6-0.9-1.2-0.9-2.1c0-0.8,0.3-1.5,0.9-2.1C43.1,31,43.9,30.7,44.8,30.7z"/>
</g>
</svg>
